<svg width="18" height="19" viewBox="0 0 18 19" fill="none" xmlns="http://www.w3.org/2000/svg">
<g id="ic:round-access-time">
<path id="Vector" d="M8.9925 2C4.8525 2 1.5 5.36 1.5 9.5C1.5 13.64 4.8525 17 8.9925 17C13.14 17 16.5 13.64 16.5 9.5C16.5 5.36 13.14 2 8.9925 2ZM9 15.5C5.685 15.5 3 12.815 3 9.5C3 6.185 5.685 3.5 9 3.5C12.315 3.5 15 6.185 15 9.5C15 12.815 12.315 15.5 9 15.5ZM8.835 5.75H8.79C8.49 5.75 8.25 5.99 8.25 6.29V9.83C8.25 10.0925 8.385 10.34 8.6175 10.475L11.73 12.3425C11.985 12.4925 12.315 12.4175 12.465 12.1625C12.5027 12.1018 12.5277 12.0341 12.5387 11.9635C12.5496 11.8929 12.5462 11.8208 12.5288 11.7515C12.5113 11.6822 12.48 11.6171 12.4368 11.5602C12.3937 11.5032 12.3395 11.4556 12.2775 11.42L9.375 9.695V6.29C9.375 5.99 9.135 5.75 8.835 5.75Z" fill="#7A7A7A"/>
</g>
</svg>
