<svg width="20" height="20" viewBox="0 0 20 20" fill="none" xmlns="http://www.w3.org/2000/svg">
<g id="vuesax/outline/arrow-right">
<g id="arrow-right">
<path id="Vector" d="M12.025 15.6829C11.8667 15.6829 11.7083 15.6246 11.5833 15.4996C11.3417 15.2579 11.3417 14.8579 11.5833 14.6163L16.2 9.99961L11.5833 5.38294C11.3417 5.14128 11.3417 4.74128 11.5833 4.49961C11.825 4.25794 12.225 4.25794 12.4667 4.49961L17.525 9.55794C17.7667 9.79961 17.7667 10.1996 17.525 10.4413L12.4667 15.4996C12.3417 15.6246 12.1833 15.6829 12.025 15.6829Z" fill="white"/>
<path id="Vector_2" d="M16.9417 10.625H2.91666C2.575 10.625 2.29166 10.3417 2.29166 10C2.29166 9.65833 2.575 9.375 2.91666 9.375H16.9417C17.2833 9.375 17.5667 9.65833 17.5667 10C17.5667 10.3417 17.2833 10.625 16.9417 10.625Z" fill="white"/>
</g>
</g>
</svg>
