<svg width="25" height="24" viewBox="0 0 25 24" fill="none" xmlns="http://www.w3.org/2000/svg">
<path d="M12.5 22.75C6.57 22.75 1.75 17.93 1.75 12C1.75 6.07 6.57 1.25 12.5 1.25C18.43 1.25 23.25 6.07 23.25 12C23.25 17.93 18.43 22.75 12.5 22.75ZM12.5 2.75C7.4 2.75 3.25 6.9 3.25 12C3.25 17.1 7.4 21.25 12.5 21.25C17.6 21.25 21.75 17.1 21.75 12C21.75 6.9 17.6 2.75 12.5 2.75Z" fill="#F44336"/>
<path d="M9.66986 15.5799C9.47986 15.5799 9.28986 15.5099 9.13986 15.3599C8.84986 15.0699 8.84986 14.5899 9.13986 14.2999L14.7999 8.63986C15.0899 8.34986 15.5699 8.34986 15.8599 8.63986C16.1499 8.92986 16.1499 9.40986 15.8599 9.69986L10.1999 15.3599C10.0599 15.5099 9.85986 15.5799 9.66986 15.5799Z" fill="#F44336"/>
<path d="M15.3299 15.5799C15.1399 15.5799 14.9499 15.5099 14.7999 15.3599L9.13986 9.69986C8.84986 9.40986 8.84986 8.92986 9.13986 8.63986C9.42986 8.34986 9.90986 8.34986 10.1999 8.63986L15.8599 14.2999C16.1499 14.5899 16.1499 15.0699 15.8599 15.3599C15.7099 15.5099 15.5199 15.5799 15.3299 15.5799Z" fill="#F44336"/>
</svg>
