<svg width="21" height="21" viewBox="0 0 21 21" fill="none" xmlns="http://www.w3.org/2000/svg">
<path d="M8.825 19.4833C8.325 19.4833 7.85 19.2333 7.525 18.7917L6.52501 17.4583C6.52501 17.4667 6.48334 17.4417 6.46667 17.4417H6.15835C3.30835 17.4417 1.54167 16.6667 1.54167 12.825V9.49167C1.54167 5.98334 3.68335 5.06667 5.48335 4.90834C5.68335 4.88334 5.91668 4.875 6.15835 4.875H11.4917C14.5083 4.875 16.1083 6.47501 16.1083 9.49167V12.825C16.1083 13.0667 16.1 13.3 16.0667 13.525C15.9167 15.3 15 17.4417 11.4917 17.4417H11.1583L10.125 18.7917C9.79999 19.2333 9.325 19.4833 8.825 19.4833ZM6.15835 6.125C5.96668 6.125 5.78334 6.13333 5.60834 6.15C3.67501 6.31667 2.79167 7.37501 2.79167 9.49167V12.825C2.79167 15.6833 3.67501 16.1917 6.15835 16.1917H6.49167C6.86667 16.1917 7.29167 16.4 7.525 16.7L8.52501 18.0417C8.70834 18.2917 8.94168 18.2917 9.12501 18.0417L10.125 16.7083C10.3667 16.3833 10.75 16.1917 11.1583 16.1917H11.4917C13.6083 16.1917 14.6667 15.3 14.825 13.4C14.85 13.2 14.8583 13.0167 14.8583 12.825V9.49167C14.8583 7.16667 13.8167 6.125 11.4917 6.125H6.15835Z" fill="white"/>
<path d="M8.82519 12.3249C8.35853 12.3249 7.99186 11.9499 7.99186 11.4915C7.99186 11.0332 8.36686 10.6582 8.82519 10.6582C9.28353 10.6582 9.65853 11.0332 9.65853 11.4915C9.65853 11.9499 9.29186 12.3249 8.82519 12.3249Z" fill="#292D32"/>
<path d="M11.4916 12.3249C11.025 12.3249 10.6583 11.9499 10.6583 11.4915C10.6583 11.0332 11.0333 10.6582 11.4916 10.6582C11.95 10.6582 12.325 11.0332 12.325 11.4915C12.325 11.9499 11.95 12.3249 11.4916 12.3249Z" fill="#292D32"/>
<path d="M6.1665 12.3249C5.69983 12.3249 5.33317 11.9499 5.33317 11.4915C5.33317 11.0332 5.70817 10.6582 6.1665 10.6582C6.62483 10.6582 6.99984 11.0332 6.99984 11.4915C6.99984 11.9499 6.62483 12.3249 6.1665 12.3249Z" fill="#292D32"/>
<path d="M15.4501 14.0748C15.2834 14.0748 15.1168 14.0082 15.0001 13.8832C14.8668 13.7498 14.8085 13.5582 14.8335 13.3748C14.8585 13.1998 14.8668 13.0165 14.8668 12.8248V9.49151C14.8668 7.16651 13.8251 6.12484 11.5001 6.12484H6.16677C5.9751 6.12484 5.79179 6.13317 5.61679 6.14984C5.43345 6.17484 5.24177 6.10816 5.10844 5.98316C4.97511 5.84983 4.9001 5.66651 4.91677 5.48318C5.06677 3.68318 5.99177 1.5415 9.5001 1.5415H14.8335C17.8501 1.5415 19.4501 3.14151 19.4501 6.15818V9.49151C19.4501 12.9998 17.3085 13.9165 15.5085 14.0748C15.4835 14.0748 15.4668 14.0748 15.4501 14.0748ZM6.26679 4.87484H11.4918C14.5084 4.87484 16.1085 6.47484 16.1085 9.49151V12.7165C17.5251 12.3665 18.1918 11.3248 18.1918 9.49151V6.15818C18.1918 3.83318 17.1501 2.7915 14.8251 2.7915H9.49178C7.65845 2.7915 6.62512 3.45817 6.26679 4.87484Z" fill="#292D32"/>
</svg>
