<svg width="16" height="16" viewBox="0 0 16 16" fill="none" xmlns="http://www.w3.org/2000/svg">
<path d="M2.66663 4.00016C2.66663 3.63197 2.9651 3.3335 3.33329 3.3335H12.6666C13.0348 3.3335 13.3333 3.63197 13.3333 4.00016C13.3333 4.36835 13.0348 4.66683 12.6666 4.66683H3.33329C2.9651 4.66683 2.66663 4.36835 2.66663 4.00016Z" fill="#667185"/>
<path d="M3.99996 8.00016C3.99996 7.63197 4.29844 7.3335 4.66663 7.3335H11.3333C11.7015 7.3335 12 7.63197 12 8.00016C12 8.36835 11.7015 8.66683 11.3333 8.66683H4.66663C4.29844 8.66683 3.99996 8.36835 3.99996 8.00016Z" fill="#667185"/>
<path d="M5.99996 11.3335C5.63177 11.3335 5.33329 11.632 5.33329 12.0002C5.33329 12.3684 5.63177 12.6668 5.99996 12.6668H9.99996C10.3681 12.6668 10.6666 12.3684 10.6666 12.0002C10.6666 11.632 10.3681 11.3335 9.99996 11.3335H5.99996Z" fill="#667185"/>
</svg>
