<svg width="20" height="20" viewBox="0 0 20 20" fill="none" xmlns="http://www.w3.org/2000/svg">
<path d="M7.49998 9.16667V15M12.5 9.16667V15M11.6666 4.16667C11.6666 3.72464 11.4911 3.30072 11.1785 2.98816C10.8659 2.67559 10.442 2.5 9.99998 2.5C9.55795 2.5 9.13403 2.67559 8.82147 2.98816C8.50891 3.30072 8.33331 3.72464 8.33331 4.16667M16.05 8.08L17.2041 15.58C17.2407 15.8174 17.2254 16.0598 17.1595 16.2908C17.0936 16.5217 16.9785 16.7357 16.8222 16.918C16.6659 17.1004 16.4721 17.2468 16.2539 17.3472C16.0358 17.4477 15.7985 17.4998 15.5583 17.5H4.44165C4.20134 17.5 3.96387 17.4481 3.74552 17.3477C3.52716 17.2474 3.33309 17.101 3.1766 16.9187C3.02011 16.7363 2.90491 16.5222 2.8389 16.2912C2.77289 16.0601 2.75762 15.8175 2.79415 15.58L3.94831 8.08C4.00885 7.68633 4.20838 7.32735 4.51075 7.06809C4.81312 6.80882 5.19834 6.66642 5.59665 6.66667H14.4033C14.8015 6.66662 15.1865 6.80911 15.4887 7.06836C15.7909 7.3276 15.9895 7.68647 16.05 8.08Z" stroke="#7A7A7A" stroke-width="1.5" stroke-linecap="round" stroke-linejoin="round"/>
</svg>
