<svg width="16" height="16" viewBox="0 0 16 16" fill="none" xmlns="http://www.w3.org/2000/svg">
<path d="M8.00004 9.44679C6.58004 9.44679 5.42004 8.29346 5.42004 6.86679C5.42004 5.44012 6.58004 4.29346 8.00004 4.29346C9.42004 4.29346 10.58 5.44679 10.58 6.87346C10.58 8.30012 9.42004 9.44679 8.00004 9.44679ZM8.00004 5.29346C7.13338 5.29346 6.42004 6.00012 6.42004 6.87346C6.42004 7.74679 7.12671 8.45346 8.00004 8.45346C8.87338 8.45346 9.58004 7.74679 9.58004 6.87346C9.58004 6.00012 8.86671 5.29346 8.00004 5.29346Z" fill="#667185"/>
<path d="M8 15.1735C7.01333 15.1735 6.01999 14.8002 5.24666 14.0602C3.28 12.1668 1.10666 9.14683 1.92666 5.5535C2.66666 2.2935 5.51333 0.833496 8 0.833496C8 0.833496 8 0.833496 8.00666 0.833496C10.4933 0.833496 13.34 2.2935 14.08 5.56016C14.8933 9.1535 12.72 12.1668 10.7533 14.0602C9.97999 14.8002 8.98666 15.1735 8 15.1735ZM8 1.8335C6.06 1.8335 3.56666 2.86683 2.90666 5.7735C2.18666 8.9135 4.16 11.6202 5.94666 13.3335C7.1 14.4468 8.90666 14.4468 10.06 13.3335C11.84 11.6202 13.8133 8.9135 13.1067 5.7735C12.44 2.86683 9.93999 1.8335 8 1.8335Z" fill="#667185"/>
</svg>
