<svg width="24" height="24" viewBox="0 0 24 24" fill="none" xmlns="http://www.w3.org/2000/svg">
<path d="M15.81 20.18C15.55 20.18 15.28 20.17 14.99 20.14C14.47 20.1 13.88 20 13.27 19.85L11.59 19.45C6.98 18.36 5.47 15.92 6.55 11.32L7.53 7.13001C7.75 6.18002 8.01 5.41002 8.33 4.77002C10.05 1.22002 13.34 1.54001 15.68 2.09001L17.35 2.48001C19.69 3.03001 21.17 3.90001 22 5.23002C22.82 6.56002 22.95 8.27001 22.4 10.61L21.42 14.79C20.56 18.45 18.77 20.18 15.81 20.18ZM13.12 3.25001C11.45 3.25001 10.39 3.94002 9.68 5.42002C9.42 5.96002 9.19 6.63001 8.99 7.47001L8.01 11.66C7.12 15.44 8.15 17.09 11.93 17.99L13.61 18.39C14.15 18.52 14.66 18.6 15.12 18.64C17.84 18.91 19.19 17.72 19.95 14.45L20.93 10.27C21.38 8.34002 21.32 6.99002 20.72 6.02001C20.12 5.05001 18.94 4.39002 17 3.94002L15.33 3.55001C14.5 3.35001 13.76 3.25001 13.12 3.25001Z" fill="#2E42A2"/>
<path d="M8.33 22.2502C5.76 22.2502 4.12 20.7102 3.07 17.4602L1.79 13.5102C0.369998 9.11017 1.64 6.63017 6.02 5.21017L7.6 4.70017C8.12 4.54017 8.51 4.43017 8.86 4.37017C9.15 4.31017 9.43 4.42017 9.6 4.65017C9.77 4.88017 9.8 5.18017 9.68 5.44017C9.42 5.97017 9.19 6.64017 9 7.48017L8.02 11.6702C7.13 15.4502 8.16 17.1002 11.94 18.0002L13.62 18.4002C14.16 18.5302 14.67 18.6102 15.13 18.6502C15.45 18.6802 15.71 18.9002 15.8 19.2102C15.88 19.5202 15.76 19.8402 15.5 20.0202C14.84 20.4702 14.01 20.8502 12.96 21.1902L11.38 21.7102C10.23 22.0702 9.23 22.2502 8.33 22.2502ZM7.78 6.22017L6.49 6.64017C2.92 7.79017 2.07 9.47017 3.22 13.0502L4.5 17.0002C5.66 20.5702 7.34 21.4302 10.91 20.2802L12.49 19.7602C12.55 19.7402 12.6 19.7202 12.66 19.7002L11.6 19.4502C6.99 18.3602 5.48 15.9202 6.56 11.3202L7.54 7.13017C7.61 6.81017 7.69 6.50017 7.78 6.22017Z" fill="#2E42A2"/>
<path d="M17.49 10.5098C17.43 10.5098 17.37 10.4998 17.3 10.4898L12.45 9.25978C12.05 9.15978 11.81 8.74978 11.91 8.34978C12.01 7.94978 12.42 7.70978 12.82 7.80978L17.67 9.03978C18.07 9.13978 18.31 9.54978 18.21 9.94978C18.13 10.2798 17.82 10.5098 17.49 10.5098Z" fill="#2E42A2"/>
<path d="M14.56 13.8899C14.5 13.8899 14.44 13.8799 14.37 13.8699L11.46 13.1299C11.06 13.0299 10.82 12.6199 10.92 12.2199C11.02 11.8199 11.43 11.5799 11.83 11.6799L14.74 12.4199C15.14 12.5199 15.38 12.9299 15.28 13.3299C15.2 13.6699 14.9 13.8899 14.56 13.8899Z" fill="#2E42A2"/>
</svg>
