<svg width="21" height="20" viewBox="0 0 21 20" fill="none" xmlns="http://www.w3.org/2000/svg">
<path d="M15.0417 18.9582C14.1 18.9582 13.1083 18.7332 12.0833 18.2998C11.0833 17.8748 10.075 17.2915 9.09166 16.5832C8.11666 15.8665 7.175 15.0665 6.28333 14.1915C5.4 13.2998 4.6 12.3582 3.89166 11.3915C3.175 10.3915 2.6 9.3915 2.19166 8.42484C1.75833 7.3915 1.54166 6.3915 1.54166 5.44984C1.54166 4.79984 1.65833 4.18317 1.88333 3.60817C2.11666 3.0165 2.49166 2.4665 3 1.9915C3.64166 1.35817 4.375 1.0415 5.15833 1.0415C5.48333 1.0415 5.81666 1.1165 6.1 1.24984C6.425 1.39984 6.7 1.62484 6.9 1.92484L8.83333 4.64984C9.00833 4.8915 9.14166 5.12484 9.23333 5.35817C9.34166 5.60817 9.4 5.85817 9.4 6.09984C9.4 6.4165 9.30833 6.72484 9.13333 7.0165C9.00833 7.2415 8.81666 7.48317 8.575 7.72484L8.00833 8.3165C8.01666 8.3415 8.025 8.35817 8.03333 8.37484C8.13333 8.54984 8.33333 8.84984 8.71666 9.29984C9.125 9.7665 9.50833 10.1915 9.89166 10.5832C10.3833 11.0665 10.7917 11.4498 11.175 11.7665C11.65 12.1665 11.9583 12.3665 12.1417 12.4582L12.125 12.4998L12.7333 11.8998C12.9917 11.6415 13.2417 11.4498 13.4833 11.3248C13.9417 11.0415 14.525 10.9915 15.1083 11.2332C15.325 11.3248 15.5583 11.4498 15.8083 11.6248L18.575 13.5915C18.8833 13.7998 19.1083 14.0665 19.2417 14.3832C19.3667 14.6998 19.425 14.9915 19.425 15.2832C19.425 15.6832 19.3333 16.0832 19.1583 16.4582C18.9833 16.8332 18.7667 17.1582 18.4917 17.4582C18.0167 17.9832 17.5 18.3582 16.9 18.5998C16.325 18.8332 15.7 18.9582 15.0417 18.9582ZM5.15833 2.2915C4.7 2.2915 4.275 2.4915 3.86666 2.8915C3.48333 3.24984 3.21666 3.6415 3.05 4.0665C2.875 4.49984 2.79166 4.95817 2.79166 5.44984C2.79166 6.22484 2.975 7.0665 3.34166 7.93317C3.71666 8.8165 4.24166 9.73317 4.90833 10.6498C5.575 11.5665 6.33333 12.4582 7.16666 13.2998C8 14.1248 8.9 14.8915 9.825 15.5665C10.725 16.2248 11.65 16.7582 12.5667 17.1415C13.9917 17.7498 15.325 17.8915 16.425 17.4332C16.85 17.2582 17.225 16.9915 17.5667 16.6082C17.7583 16.3998 17.9083 16.1748 18.0333 15.9082C18.1333 15.6998 18.1833 15.4832 18.1833 15.2665C18.1833 15.1332 18.1583 14.9998 18.0917 14.8498C18.0667 14.7998 18.0167 14.7082 17.8583 14.5998L15.0917 12.6332C14.925 12.5165 14.775 12.4332 14.6333 12.3748C14.45 12.2998 14.375 12.2248 14.0917 12.3998C13.925 12.4832 13.775 12.6082 13.6083 12.7748L12.975 13.3998C12.65 13.7165 12.15 13.7915 11.7667 13.6498L11.5417 13.5498C11.2 13.3665 10.8 13.0832 10.3583 12.7082C9.95833 12.3665 9.525 11.9665 9 11.4498C8.59166 11.0332 8.18333 10.5915 7.75833 10.0998C7.36666 9.6415 7.08333 9.24984 6.90833 8.92484L6.80833 8.67484C6.75833 8.48317 6.74166 8.37484 6.74166 8.25817C6.74166 7.95817 6.85 7.6915 7.05833 7.48317L7.68333 6.83317C7.85 6.6665 7.975 6.50817 8.05833 6.3665C8.125 6.25817 8.15 6.1665 8.15 6.08317C8.15 6.0165 8.125 5.9165 8.08333 5.8165C8.025 5.68317 7.93333 5.53317 7.81666 5.37484L5.88333 2.6415C5.8 2.52484 5.7 2.4415 5.575 2.38317C5.44166 2.32484 5.3 2.2915 5.15833 2.2915ZM12.125 12.5082L11.9917 13.0748L12.2167 12.4915C12.175 12.4832 12.1417 12.4915 12.125 12.5082Z" fill="white"/>
<path d="M15.9167 8.12516C15.575 8.12516 15.2917 7.84183 15.2917 7.50016C15.2917 7.20016 14.9917 6.57516 14.4917 6.04183C14 5.51683 13.4583 5.2085 13 5.2085C12.6583 5.2085 12.375 4.92516 12.375 4.5835C12.375 4.24183 12.6583 3.9585 13 3.9585C13.8083 3.9585 14.6583 4.39183 15.4 5.1835C16.0917 5.92516 16.5417 6.8335 16.5417 7.50016C16.5417 7.84183 16.2583 8.12516 15.9167 8.12516Z" fill="#292D32"/>
<path d="M18.8333 8.12484C18.4917 8.12484 18.2083 7.8415 18.2083 7.49984C18.2083 4.62484 15.875 2.2915 13 2.2915C12.6583 2.2915 12.375 2.00817 12.375 1.6665C12.375 1.32484 12.6583 1.0415 13 1.0415C16.5583 1.0415 19.4583 3.9415 19.4583 7.49984C19.4583 7.8415 19.175 8.12484 18.8333 8.12484Z" fill="#292D32"/>
</svg>
