<svg width="18" height="19" viewBox="0 0 18 19" fill="none" xmlns="http://www.w3.org/2000/svg">
<g id="material-symbols:calendar-month-outline-rounded">
<path id="Vector" d="M3.75 17C3.3375 17 2.98425 16.853 2.69025 16.559C2.39625 16.265 2.2495 15.912 2.25 15.5V5C2.25 4.5875 2.397 4.23425 2.691 3.94025C2.985 3.64625 3.338 3.4995 3.75 3.5H4.5V2.75C4.5 2.5375 4.572 2.35925 4.716 2.21525C4.86 2.07125 5.038 1.9995 5.25 2C5.4625 2 5.64075 2.072 5.78475 2.216C5.92875 2.36 6.0005 2.538 6 2.75V3.5H12V2.75C12 2.5375 12.072 2.35925 12.216 2.21525C12.36 2.07125 12.538 1.9995 12.75 2C12.9625 2 13.1408 2.072 13.2848 2.216C13.4288 2.36 13.5005 2.538 13.5 2.75V3.5H14.25C14.6625 3.5 15.0158 3.647 15.3098 3.941C15.6038 4.235 15.7505 4.588 15.75 5V15.5C15.75 15.9125 15.603 16.2658 15.309 16.5598C15.015 16.8538 14.662 17.0005 14.25 17H3.75ZM3.75 15.5H14.25V8H3.75V15.5ZM3.75 6.5H14.25V5H3.75V6.5ZM9 11C8.7875 11 8.60925 10.928 8.46525 10.784C8.32125 10.64 8.2495 10.462 8.25 10.25C8.25 10.0375 8.322 9.85925 8.466 9.71525C8.61 9.57125 8.788 9.4995 9 9.5C9.2125 9.5 9.39075 9.572 9.53475 9.716C9.67875 9.86 9.7505 10.038 9.75 10.25C9.75 10.4625 9.678 10.6408 9.534 10.7848C9.39 10.9288 9.212 11.0005 9 11ZM6 11C5.7875 11 5.60925 10.928 5.46525 10.784C5.32125 10.64 5.2495 10.462 5.25 10.25C5.25 10.0375 5.322 9.85925 5.466 9.71525C5.61 9.57125 5.788 9.4995 6 9.5C6.2125 9.5 6.39075 9.572 6.53475 9.716C6.67875 9.86 6.7505 10.038 6.75 10.25C6.75 10.4625 6.678 10.6408 6.534 10.7848C6.39 10.9288 6.212 11.0005 6 11ZM12 11C11.7875 11 11.6093 10.928 11.4653 10.784C11.3213 10.64 11.2495 10.462 11.25 10.25C11.25 10.0375 11.322 9.85925 11.466 9.71525C11.61 9.57125 11.788 9.4995 12 9.5C12.2125 9.5 12.3908 9.572 12.5348 9.716C12.6788 9.86 12.7505 10.038 12.75 10.25C12.75 10.4625 12.678 10.6408 12.534 10.7848C12.39 10.9288 12.212 11.0005 12 11ZM9 14C8.7875 14 8.60925 13.928 8.46525 13.784C8.32125 13.64 8.2495 13.462 8.25 13.25C8.25 13.0375 8.322 12.8593 8.466 12.7153C8.61 12.5713 8.788 12.4995 9 12.5C9.2125 12.5 9.39075 12.572 9.53475 12.716C9.67875 12.86 9.7505 13.038 9.75 13.25C9.75 13.4625 9.678 13.6408 9.534 13.7848C9.39 13.9288 9.212 14.0005 9 14ZM6 14C5.7875 14 5.60925 13.928 5.46525 13.784C5.32125 13.64 5.2495 13.462 5.25 13.25C5.25 13.0375 5.322 12.8593 5.466 12.7153C5.61 12.5713 5.788 12.4995 6 12.5C6.2125 12.5 6.39075 12.572 6.53475 12.716C6.67875 12.86 6.7505 13.038 6.75 13.25C6.75 13.4625 6.678 13.6408 6.534 13.7848C6.39 13.9288 6.212 14.0005 6 14ZM12 14C11.7875 14 11.6093 13.928 11.4653 13.784C11.3213 13.64 11.2495 13.462 11.25 13.25C11.25 13.0375 11.322 12.8593 11.466 12.7153C11.61 12.5713 11.788 12.4995 12 12.5C12.2125 12.5 12.3908 12.572 12.5348 12.716C12.6788 12.86 12.7505 13.038 12.75 13.25C12.75 13.4625 12.678 13.6408 12.534 13.7848C12.39 13.9288 12.212 14.0005 12 14Z" fill="#7A7A7A"/>
</g>
</svg>
