<svg width="16" height="16" viewBox="0 0 16 16" fill="none" xmlns="http://www.w3.org/2000/svg">
<path d="M8.47145 2.19526C8.34642 2.07024 8.17685 2 8.00004 2C7.82323 2 7.65366 2.07024 7.52864 2.19526L3.52864 6.19526C3.26829 6.45561 3.26829 6.87772 3.52864 7.13807C3.78899 7.39842 4.2111 7.39842 4.47145 7.13807L8.00004 3.60948L11.5286 7.13807C11.789 7.39842 12.2111 7.39842 12.4714 7.13807C12.7318 6.87772 12.7318 6.45561 12.4714 6.19526L8.47145 2.19526Z" fill="#667185"/>
<path d="M8.47145 14.4714C8.34642 14.5964 8.17685 14.6667 8.00004 14.6667C7.82323 14.6667 7.65366 14.5964 7.52864 14.4714L3.52864 10.4714C3.26829 10.2111 3.26829 9.78895 3.52864 9.52859C3.78899 9.26825 4.2111 9.26825 4.47145 9.52859L8.00004 13.0572L11.5286 9.52859C11.789 9.26825 12.2111 9.26825 12.4714 9.52859C12.7318 9.78895 12.7318 10.2111 12.4714 10.4714L8.47145 14.4714Z" fill="#667185"/>
</svg>
