<svg width="21" height="20" viewBox="0 0 21 20" fill="none" xmlns="http://www.w3.org/2000/svg">
<path d="M13.0001 18.9583H8.00012C6.90012 18.9583 5.98345 18.85 5.20845 18.6166C4.92512 18.5333 4.74178 18.2583 4.75845 17.9666C4.96678 15.475 7.49178 13.5166 10.5001 13.5166C13.5084 13.5166 16.0251 15.4666 16.2418 17.9666C16.2668 18.2666 16.0834 18.5333 15.7918 18.6166C15.0168 18.85 14.1001 18.9583 13.0001 18.9583ZM6.10012 17.55C6.65012 17.6583 7.27512 17.7083 8.00012 17.7083H13.0001C13.7251 17.7083 14.3501 17.6583 14.9001 17.55C14.4584 15.95 12.6334 14.7666 10.5001 14.7666C8.36678 14.7666 6.54178 15.95 6.10012 17.55Z" fill="white"/>
<path d="M13 1.6665H8.00001C3.83334 1.6665 2.16667 3.33317 2.16667 7.49984V12.4998C2.16667 15.6498 3.11667 17.3748 5.38334 18.0165C5.56667 15.8498 7.79167 14.1415 10.5 14.1415C13.2083 14.1415 15.4333 15.8498 15.6167 18.0165C17.8833 17.3748 18.8333 15.6498 18.8333 12.4998V7.49984C18.8333 3.33317 17.1667 1.6665 13 1.6665ZM10.5 11.8082C8.85001 11.8082 7.51667 10.4665 7.51667 8.81652C7.51667 7.16652 8.85001 5.83317 10.5 5.83317C12.15 5.83317 13.4833 7.16652 13.4833 8.81652C13.4833 10.4665 12.15 11.8082 10.5 11.8082Z" fill="white" stroke="#2E42A2" stroke-width="1.5" stroke-linecap="round" stroke-linejoin="round"/>
<path d="M10.4999 12.4335C8.50827 12.4335 6.8916 10.8085 6.8916 8.81684C6.8916 6.82518 8.50827 5.2085 10.4999 5.2085C12.4916 5.2085 14.1083 6.82518 14.1083 8.81684C14.1083 10.8085 12.4916 12.4335 10.4999 12.4335ZM10.4999 6.4585C9.19994 6.4585 8.1416 7.51684 8.1416 8.81684C8.1416 10.1252 9.19994 11.1835 10.4999 11.1835C11.7999 11.1835 12.8583 10.1252 12.8583 8.81684C12.8583 7.51684 11.7999 6.4585 10.4999 6.4585Z" fill="#2E42A2"/>
</svg>
